<svg version="1.1" xmlns="http://www.w3.org/2000/svg" xmlns:xlink="http://www.w3.org/1999/xlink" width="27" height="26"><defs/><g><path fill="rgb(255,255,255)" stroke="none" paint-order="stroke fill markers" fill-rule="evenodd" d=" M 16.735644102096558 6.449624061584473 C 16.735644102096558 6.449624061584473 14.030916452407837 6.449624061584473 14.030916452407837 6.449624061584473 C 11.37779450416565 6.449624061584473 11.98257303237915 9.660744667053223 11.89431643486023 10.831398010253906 C 11.89431643486023 10.840335845947266 10.271913766860962 10.831398010253906 10.271913766860962 10.831398010253906 C 10.271913766860962 10.831398010253906 10.271913766860962 13.010198593139648 10.271913766860962 13.010198593139648 C 10.271913766860962 13.010198593139648 11.889279842376709 13.010198593139648 11.889279842376709 13.010198593139648 C 11.889279842376709 13.010198593139648 11.889279842376709 20.67743968963623 11.889279842376709 20.67743968963623 C 11.889279842376709 20.67743968963623 14.576573133468628 20.67743968963623 14.576573133468628 20.67743968963623 C 14.576573133468628 20.67743968963623 14.570761680603027 13.010198593139648 14.570761680603027 13.010198593139648 C 14.570761680603027 13.010198593139648 16.37114977836609 13.010198593139648 16.37114977836609 13.010198593139648 C 16.37114977836609 13.010198593139648 16.72386622428894 10.819413185119629 16.72386622428894 10.819413185119629 C 16.72386622428894 10.819413185119629 14.576573133468628 10.843382835388184 14.576573133468628 10.843382835388184 C 14.576573133468628 9.288199424743652 14.458484411239624 8.655644416809082 15.35011625289917 8.655644416809082 C 15.429616928100586 8.655644416809082 16.732699632644653 8.652800559997559 16.732699632644653 8.652800559997559 C 16.732699632644653 8.652800559997559 16.735644102096558 6.449624061584473 16.735644102096558 6.449624061584473 Z M 13.747007608413696 1.0330924987792969 C 20.234836101531982 1.0330924987792969 25.494200944900513 6.398028373718262 25.494200944900513 13.016292572021484 C 25.494200944900513 19.634556770324707 20.234836101531982 24.99989891052246 13.747007608413696 24.99989891052246 C 7.259334087371826 24.99989891052246 1.999969244003296 19.634556770324707 1.999969244003296 13.016292572021484 C 1.999969244003296 6.398028373718262 7.259334087371826 1.0330924987792969 13.747007608413696 1.0330924987792969 Z"/></g></svg>